name rise37.2698peak67.6939fall79.5734.mot
datacolumns 19
datarows 17
range 14.55828300000000 14.58495100000000
endheader
time	ground_force1_vx	ground_force1_vy	ground_force1_vz	ground_force1_px	ground_force1_py	ground_force1_pz	ground_force2_vx	ground_force2_vy	ground_force2_vz	ground_force2_px	ground_force2_py	ground_force2_pz	ground_torque1_x	ground_torque1_y	ground_torque1_z	ground_torque2_x	ground_torque2_y	ground_torque2_z	
14.55828300000000	-26.77115700000000	766.39406199999996	42.73584000000000	0.13498900000000	0.00000000000000	0.09175100000000	-7.20692400000000	27.87623500000000	4.99624200000000	0.33259500000000	0.00000000000000	-0.07082800000000	0.00000000000000	15.47537600000000	0.00000000000000	0.00000000000000	2.55922000000000	0.00000000000000	
14.55994700000000	-27.29003500000000	764.62683500000003	42.52430400000000	0.13430100000000	0.00000000000000	0.09166500000000	-8.41424300000000	34.14035200000000	5.97426900000000	0.33889700000000	0.00000000000000	-0.07093900000000	0.00000000000000	15.39771400000000	0.00000000000000	0.00000000000000	3.13345800000000	0.00000000000000	
14.56161200000000	-27.83299000000000	762.81588499999998	42.30210400000000	0.13361600000000	0.00000000000000	0.09157600000000	-9.54195600000000	40.61572800000000	6.94071100000000	0.34455800000000	0.00000000000000	-0.07105700000000	0.00000000000000	15.32325900000000	0.00000000000000	0.00000000000000	3.72034700000000	0.00000000000000	
14.56327600000000	-28.40032500000000	760.95954600000005	42.06940600000000	0.13293200000000	0.00000000000000	0.09148400000000	-10.54919400000000	47.17429400000000	7.86874400000000	0.34965900000000	0.00000000000000	-0.07118100000000	0.00000000000000	15.25212600000000	0.00000000000000	0.00000000000000	4.30464100000000	0.00000000000000	
14.56494200000000	-28.99228100000000	759.05602299999998	41.82637700000000	0.13225000000000	0.00000000000000	0.09139000000000	-11.40251600000000	53.70170300000000	8.73519200000000	0.35427100000000	0.00000000000000	-0.07131000000000	0.00000000000000	15.18442000000000	0.00000000000000	0.00000000000000	4.87241000000000	0.00000000000000	
14.56661400000000	-29.60902500000000	757.10339099999999	41.57319000000000	0.13156700000000	0.00000000000000	0.09129200000000	-12.07771600000000	60.10457600000000	9.52183100000000	0.35844900000000	0.00000000000000	-0.07144600000000	0.00000000000000	15.12023100000000	0.00000000000000	0.00000000000000	5.41189200000000	0.00000000000000	
14.56827700000000	-30.25065400000000	755.09960000000001	41.31001700000000	0.13088400000000	0.00000000000000	0.09119300000000	-12.56062900000000	66.31501000000000	10.21610400000000	0.36224400000000	0.00000000000000	-0.07158700000000	0.00000000000000	15.05963800000000	0.00000000000000	0.00000000000000	5.91405800000000	0.00000000000000	
14.56994300000000	-30.91719100000000	753.04247499999997	41.03703400000000	0.13020100000000	0.00000000000000	0.09109000000000	-12.84700300000000	72.29228700000000	10.81126700000000	0.36569500000000	0.00000000000000	-0.07173300000000	0.00000000000000	15.00270500000000	0.00000000000000	0.00000000000000	6.37286600000000	0.00000000000000	
14.57161200000000	-31.60857800000000	750.92971599999998	40.75441600000000	0.12951600000000	0.00000000000000	0.09098600000000	-12.94156800000000	78.02206600000000	11.30603100000000	0.36883800000000	0.00000000000000	-0.07188500000000	0.00000000000000	14.94948300000000	0.00000000000000	0.00000000000000	6.78521800000000	0.00000000000000	
14.57327600000000	-32.32467700000000	748.75890400000003	40.46233700000000	0.12882900000000	0.00000000000000	0.09087900000000	-12.85653300000000	83.51353800000000	11.70381700000000	0.37170500000000	0.00000000000000	-0.07204200000000	0.00000000000000	14.90000900000000	0.00000000000000	0.00000000000000	7.15068700000000	0.00000000000000	
14.57495100000000	-33.06526600000000	746.52750200000003	40.16096900000000	0.12813900000000	0.00000000000000	0.09077000000000	-12.60971100000000	88.79513000000000	12.01175900000000	0.37432000000000	0.00000000000000	-0.07220400000000	0.00000000000000	14.85430500000000	0.00000000000000	0.00000000000000	7.47106900000000	0.00000000000000	
14.57661600000000	-33.83003500000000	744.23286199999995	39.85048200000000	0.12744600000000	0.00000000000000	0.09065900000000	-12.22251500000000	93.90938000000000	12.23956100000000	0.37670900000000	0.00000000000000	-0.07237000000000	0.00000000000000	14.81237900000000	0.00000000000000	0.00000000000000	7.74982400000000	0.00000000000000	
14.57827600000000	-34.61858600000000	741.87222599999996	39.53104600000000	0.12674900000000	0.00000000000000	0.09054600000000	-11.71799000000000	98.90752900000000	12.39835800000000	0.37889000000000	0.00000000000000	-0.07254000000000	0.00000000000000	14.77422400000000	0.00000000000000	0.00000000000000	7.99148800000000	0.00000000000000	
14.57994500000000	-35.43043000000000	739.44273799999996	39.20282400000000	0.12604900000000	0.00000000000000	0.09043200000000	-11.11904800000000	103.84433700000000	12.49964700000000	0.38088400000000	0.00000000000000	-0.07271400000000	0.00000000000000	14.73981500000000	0.00000000000000	0.00000000000000	8.20109600000000	0.00000000000000	
14.58160900000000	-36.26498400000000	736.94143999999994	38.86597700000000	0.12534300000000	0.00000000000000	0.09031600000000	-10.44700900000000	108.77349200000000	12.55437500000000	0.38270400000000	0.00000000000000	-0.07289200000000	0.00000000000000	14.70911500000000	0.00000000000000	0.00000000000000	8.38366400000000	0.00000000000000	
14.58327600000000	-37.12157000000000	734.36529199999995	38.52066200000000	0.12463300000000	0.00000000000000	0.09019900000000	-9.72050700000000	113.74387400000001	12.57222600000000	0.38436700000000	0.00000000000000	-0.07307300000000	0.00000000000000	14.68206900000000	0.00000000000000	0.00000000000000	8.54377500000000	0.00000000000000	
14.58495100000000	-37.99941500000000	731.71116600000005	38.16703000000000	0.12391800000000	0.00000000000000	0.09008100000000	-8.95478600000000	118.79680200000000	12.56112800000000	0.38588400000000	0.00000000000000	-0.07325800000000	0.00000000000000	14.65860500000000	0.00000000000000	0.00000000000000	8.68526600000000	0.00000000000000	
